HIERARCHY
ROOT Hips
{
	OFFSET -0.001795 -0.223333 0.028219
	CHANNELS 6 Xposition Yposition Zposition Zrotation Yrotation Xrotation 
	JOINT LeftUpLeg
	{
		OFFSET 0.069520 -0.091406 -0.006815
		CHANNELS 3 Zrotation Yrotation Xrotation
		JOINT LeftLeg
		{
			OFFSET 0.034277 -0.375199 -0.004496
			CHANNELS 3 Zrotation Yrotation Xrotation
			JOINT LeftFoot
			{
				OFFSET -0.013596 -0.397961 -0.043693
				CHANNELS 3 Zrotation Yrotation Xrotation
				JOINT LeftToe
				{
					OFFSET 0.026358 -0.055791 0.119288
					CHANNELS 3 Zrotation Yrotation Xrotation
					End Site
					{
						OFFSET 0.000000 0.000000 0.000000
					}
				}
			}
		}
	}
	JOINT RightUpLeg
	{
		OFFSET -0.067670 -0.090522 -0.004320
		CHANNELS 3 Zrotation Yrotation Xrotation
		JOINT RightLeg
		{
			OFFSET -0.038290 -0.382569 -0.008850
			CHANNELS 3 Zrotation Yrotation Xrotation
			JOINT RightFoot
			{
				OFFSET 0.015774 -0.398415 -0.042312
				CHANNELS 3 Zrotation Yrotation Xrotation
				JOINT RightToe
				{
					OFFSET -0.025372 -0.048144 0.123348
					CHANNELS 3 Zrotation Yrotation Xrotation
					End Site
					{
						OFFSET 0.000000 0.000000 0.000000
					}
				}
			}
		}
	}
	JOINT Spine
	{
		OFFSET -0.002533 0.108963 -0.026696
		CHANNELS 3 Zrotation Yrotation Xrotation
		JOINT Spine1
		{
			OFFSET 0.005487 0.135180 0.001092
			CHANNELS 3 Zrotation Yrotation Xrotation
			JOINT Spine2
			{
				OFFSET 0.001457 0.052922 0.025425
				CHANNELS 3 Zrotation Yrotation Xrotation
				JOINT Neck
				{
					OFFSET -0.002778 0.213870 -0.042857
					CHANNELS 3 Zrotation Yrotation Xrotation
					JOINT Head
					{
						OFFSET 0.005152 0.064970 0.051349
						CHANNELS 3 Zrotation Yrotation Xrotation
						End Site
						{
							OFFSET 0.000000 0.000000 0.000000
						}
					}
				}
				JOINT LeftShoulder
				{
					OFFSET 0.078845 0.121749 -0.034090
					CHANNELS 3 Zrotation Yrotation Xrotation
					JOINT LeftArm
					{
						OFFSET 0.090977 0.030469 -0.008868
						CHANNELS 3 Zrotation Yrotation Xrotation
						JOINT LeftForeArm
						{
							OFFSET 0.259612 -0.012772 -0.027456
							CHANNELS 3 Zrotation Yrotation Xrotation
							JOINT LeftHand
							{
								OFFSET 0.249234 0.008986 -0.001171
								CHANNELS 3 Zrotation Yrotation Xrotation
								End Site
								{
									OFFSET 0.000000 0.000000 0.000000
								}
							}
						}
					}
				}
				JOINT RightShoulder
				{
					OFFSET -0.081759 0.118833 -0.038615
					CHANNELS 3 Zrotation Yrotation Xrotation
					JOINT RightArm
					{
						OFFSET -0.096012 0.032551 -0.009143
						CHANNELS 3 Zrotation Yrotation Xrotation
						JOINT RightForeArm
						{
							OFFSET -0.253742 -0.013329 -0.021401
							CHANNELS 3 Zrotation Yrotation Xrotation
							JOINT RightHand
							{
								OFFSET -0.255298 0.007772 -0.005559
								CHANNELS 3 Zrotation Yrotation Xrotation
								End Site
								{
									OFFSET 0.000000 0.000000 0.000000
								}
							}
						}
					}
				}
			}
		}
	}
}
MOTION
Frames: 18
Frame Time: 0.050000
0.000000 0.941536 0.000000 -1.829227 0.319110 -0.988591 1.529367 0.287169 3.929764 1.493495 -0.560411 8.199209 3.994276 8.428215 0.200144 0.000000 0.000000 0.000000 0.635722 1.215719 -11.600070 -0.677896 0.811806 16.162517 -0.422934 -1.475750 0.818614 0.000000 0.000000 0.000000 5.297628 -0.627287 6.856632 0.223007 -0.110614 0.103643 -4.482594 0.268592 8.241890 6.740053 -2.878808 -16.379693 0.000000 0.000000 0.000000 -16.835599 -7.962257 2.276420 -52.494569 -10.914250 -1.843367 -4.914578 -36.160785 3.008958 0.000000 0.000000 0.000000 16.148334 -1.829991 -2.057076 61.489842 2.191828 -5.251898 6.036708 39.236501 3.779444 0.000000 0.000000 0.000000 
-0.011054 0.939929 0.010068 -1.908649 0.730559 -0.976557 2.654456 0.115065 2.169517 -0.323781 -0.362299 11.951833 5.892849 11.762845 -2.201575 0.000000 0.000000 0.000000 1.786745 1.218239 -10.807547 -0.994536 0.910333 16.831957 -0.907127 -1.945719 -0.803488 0.000000 0.000000 0.000000 6.264926 -0.746165 7.393883 -0.077857 0.021738 0.538441 -4.623128 1.332559 7.468239 6.123363 -2.015147 -18.533355 0.000000 0.000000 0.000000 -16.752650 -7.997143 1.947465 -52.505086 -11.124076 -1.619379 -4.576035 -35.397141 2.678815 0.000000 0.000000 0.000000 16.007267 -2.808391 -2.295525 61.966955 1.586839 -5.481969 6.421121 38.215671 3.930372 0.000000 0.000000 0.000000 
-0.020578 0.940083 0.018954 -1.676221 1.225873 -1.632950 3.286914 -0.139863 -1.706580 -1.974968 -0.226580 20.861286 6.432489 13.226953 -0.268459 0.000000 0.000000 0.000000 2.498624 1.164391 -9.884017 -1.456214 1.027505 17.087145 -1.476473 -3.511847 -0.600326 0.000000 0.000000 0.000000 6.327358 -0.851291 8.535268 0.224289 -0.094212 -0.388223 -5.217435 2.058923 8.676634 5.726025 -1.684490 -18.555420 0.000000 0.000000 0.000000 -16.715289 -8.196994 1.838167 -52.567735 -11.078587 -1.729931 -4.800287 -34.863174 2.632803 0.000000 0.000000 0.000000 16.815314 -1.615341 -1.486892 61.361743 2.558670 -5.077769 3.626530 36.146081 2.943829 0.000000 0.000000 0.000000 
-0.027703 0.940930 0.027479 -2.000132 1.734283 -2.463576 5.400053 -0.336257 -6.451726 -5.630767 0.869105 31.046329 7.106559 14.870500 1.861463 0.000000 0.000000 0.000000 3.023848 1.037485 -8.514266 -1.065533 0.906008 17.097745 -1.187250 -2.840047 -0.448210 0.000000 0.000000 0.000000 7.132505 -1.007883 9.546199 -0.317264 0.129761 0.823402 -5.023671 3.467427 7.581543 5.882775 -1.644637 -17.971976 0.000000 0.000000 0.000000 -16.917150 -8.092200 1.313204 -52.166933 -10.116896 -1.945430 -5.287455 -37.095587 2.735703 0.000000 0.000000 0.000000 15.200455 -1.996807 -1.291732 61.257453 2.840578 -4.718383 4.294170 35.500720 3.216905 0.000000 0.000000 0.000000 
-0.031940 0.942423 0.036455 -1.622148 3.336641 -3.131770 7.365134 -0.439683 -12.029013 -10.371879 2.866398 40.085872 8.195925 17.207748 4.806264 0.000000 0.000000 0.000000 2.519829 0.709729 -5.980450 -0.716658 0.701516 15.525877 -1.262198 -2.908770 -0.813621 0.000000 0.000000 0.000000 7.283996 -1.110734 10.342996 -0.729951 0.376082 -0.574224 -4.730297 4.608667 9.179434 6.059411 -1.624227 -17.591615 0.000000 0.000000 0.000000 -18.814495 -8.535523 0.926652 -50.625605 -9.476291 -2.113852 -6.603545 -37.947903 3.073252 0.000000 0.000000 0.000000 14.876914 -2.051296 -0.936115 60.545210 3.295179 -4.537227 4.910035 34.220319 3.437694 0.000000 0.000000 0.000000 
-0.033144 0.943491 0.046511 -0.879124 3.866805 -3.842148 8.053216 -0.478298 -15.328997 -12.839348 4.122351 42.923578 8.817451 18.278979 4.496070 0.000000 0.000000 0.000000 1.850196 0.423541 -3.714565 -0.547165 0.617070 14.650667 -1.118227 -2.143195 -1.784976 0.000000 0.000000 0.000000 6.474533 -1.121744 11.278822 -0.695241 0.386464 -1.306115 -4.709413 6.228384 9.805690 7.731108 -2.299319 -18.444947 0.000000 0.000000 0.000000 -18.589192 -7.909955 0.130016 -50.753644 -8.457319 -2.484832 -8.088208 -38.405594 3.381760 0.000000 0.000000 0.000000 13.863829 -2.092476 -0.614137 60.541617 3.686461 -4.277715 4.799959 33.388423 3.468228 0.000000 0.000000 0.000000 
-0.031927 0.945023 0.056944 -0.145137 4.275245 -3.608563 7.447061 -0.640895 -17.243646 -12.779365 3.832690 39.706323 9.597487 19.627823 4.090789 0.000000 0.000000 0.000000 1.135975 0.277485 -2.560525 -0.373684 0.532280 13.579802 -0.988883 -1.894693 -1.583663 0.000000 0.000000 0.000000 5.906449 -1.103542 11.570688 -1.048215 0.571397 -1.913200 -4.713065 7.286756 9.944797 8.222554 -2.327133 -19.119073 0.000000 0.000000 0.000000 -18.212287 -7.445450 -0.375441 -51.152554 -7.112645 -3.042841 -9.353812 -37.350010 3.565923 0.000000 0.000000 0.000000 13.714924 -2.279742 -0.500579 59.942956 3.921112 -4.108692 6.313731 33.560409 4.034805 0.000000 0.000000 0.000000 
-0.027944 0.944669 0.068147 0.485441 4.716666 -4.022961 5.705026 -0.921346 -17.866120 -9.533399 2.127515 35.236883 8.860786 18.151827 2.009018 0.000000 0.000000 0.000000 0.728461 0.103861 -1.007294 -0.386601 0.504863 12.847820 -1.306867 -2.593458 -1.993960 0.000000 0.000000 0.000000 4.709595 -1.057404 12.423759 -0.533597 0.316042 -1.365960 -4.629544 7.398340 9.769951 9.154755 -2.959303 -18.652182 0.000000 0.000000 0.000000 -16.687244 -6.294178 -0.756163 -53.146693 -5.331639 -4.108647 -9.765397 -37.453891 3.657497 0.000000 0.000000 0.000000 12.818107 -1.977809 -0.343335 60.491289 4.692703 -3.611700 5.232975 34.045978 3.806842 0.000000 0.000000 0.000000 
-0.021154 0.943118 0.080341 0.688413 4.065010 -3.984475 4.842372 -1.015703 -17.719080 -5.918445 0.723438 30.929818 6.758131 13.646785 -1.154933 0.000000 0.000000 0.000000 0.578495 0.008804 -0.135018 -0.856127 0.616778 12.526451 -0.910850 -1.190305 -2.679098 0.000000 0.000000 0.000000 3.872281 -0.963539 12.496490 -0.644120 0.336452 -0.506216 -3.853397 7.668138 9.191977 8.979855 -2.737525 -19.308230 0.000000 0.000000 0.000000 -16.445008 -5.923199 -0.856084 -53.582066 -3.330281 -5.014418 -9.648310 -35.019081 3.413846 0.000000 0.000000 0.000000 12.282644 -1.474238 -0.158780 60.180085 3.753021 -4.007858 4.382433 36.376661 3.856705 0.000000 0.000000 0.000000 
-0.011209 0.940425 0.093909 0.660724 4.628292 -4.393876 4.035242 -1.026327 -16.064186 -3.354030 -0.235295 27.961610 4.805083 8.753523 -3.825016 0.000000 0.000000 0.000000 -0.251479 -0.130920 1.260631 -0.598362 0.536275 12.174710 -1.138597 -1.685525 -3.047644 0.000000 0.000000 0.000000 3.741608 -0.990031 12.934858 -0.441878 0.250569 -0.747120 -3.925604 7.437278 9.744050 8.910468 -2.788055 -18.885089 0.000000 0.000000 0.000000 -15.332680 -5.029540 -1.062902 -54.538368 -1.819622 -5.998862 -9.857964 -31.330408 3.158018 0.000000 0.000000 0.000000 13.079591 -2.571173 -0.659899 59.600410 3.629120 -4.183554 4.878316 35.929594 3.990274 0.000000 0.000000 0.000000 
0.002084 0.937680 0.108585 0.251330 4.215441 -4.491718 3.948745 -0.892467 -14.109820 -2.821785 -0.319563 25.971595 4.953835 8.745840 -4.848410 0.000000 0.000000 0.000000 -0.714621 -0.165479 1.686802 -0.723258 0.625545 13.677383 -1.615117 -2.675569 -3.789560 0.000000 0.000000 0.000000 3.697584 -0.980364 12.956200 -0.799670 0.454395 -1.789767 -3.029759 7.105403 10.836792 9.205032 -3.184700 -18.375181 0.000000 0.000000 0.000000 -15.725418 -3.200210 -1.816192 -54.375674 1.044476 -7.390293 -9.854739 -29.098028 3.029947 0.000000 0.000000 0.000000 13.389272 -3.096378 -1.004674 59.020880 2.767649 -4.746217 4.704909 35.635898 3.854917 0.000000 0.000000 0.000000 
0.019114 0.934776 0.124271 0.202685 3.682836 -4.143382 2.946397 -0.852817 -12.143829 -2.572497 -0.271795 23.422377 5.042672 8.804169 -5.372634 0.000000 0.000000 0.000000 -1.519942 -0.062477 0.744369 -0.591408 0.733477 17.354830 -2.245155 -3.419417 -6.191742 0.000000 0.000000 0.000000 3.384300 -0.888055 12.269945 -0.982559 0.546404 -2.195821 -2.183240 6.781671 11.545357 8.802215 -3.163586 -17.700363 0.000000 0.000000 0.000000 -14.438080 -1.864859 -2.023886 -56.334916 4.436581 -9.522376 -10.858197 -28.432931 3.291107 0.000000 0.000000 0.000000 13.407116 -4.607712 -1.855762 58.196775 -0.591744 -6.406120 3.743711 36.432185 3.646395 0.000000 0.000000 0.000000 
0.038240 0.934669 0.140313 0.393879 3.034345 -3.775199 1.371641 -0.808355 -9.871131 -2.317881 -0.229605 21.028173 5.307429 9.305199 -5.884648 0.000000 0.000000 0.000000 -2.344861 0.149756 -1.686725 -0.748933 0.997187 22.711234 -2.963766 -5.249084 -6.746960 0.000000 0.000000 0.000000 2.984057 -0.793165 11.616025 -1.610511 0.822683 -1.778107 -1.549103 6.380206 11.895226 8.687821 -3.180062 -17.804671 0.000000 0.000000 0.000000 -13.510832 1.232262 -3.084355 -56.892858 6.471343 -10.730044 -11.495745 -27.941621 3.458265 0.000000 0.000000 0.000000 13.166522 -5.967960 -2.652336 57.108906 -5.166350 -8.450657 4.568609 36.770178 3.869083 0.000000 0.000000 0.000000 
0.056701 0.935599 0.155998 0.576577 3.840283 -4.600985 -0.094430 -0.698425 -7.506085 -2.330725 -0.253407 20.478897 5.374693 9.182729 -6.417423 0.000000 0.000000 0.000000 -2.789529 0.447061 -5.850228 -1.194717 1.499221 34.615724 -3.176722 -7.732308 -1.111106 0.000000 0.000000 0.000000 2.505424 -0.820245 12.632387 -1.602041 0.829011 -1.870652 -1.041635 6.153672 12.987665 8.368579 -2.989536 -17.803919 0.000000 0.000000 0.000000 -11.596466 2.038017 -3.025841 -56.936032 8.692015 -12.008177 -10.549669 -28.875139 3.344332 0.000000 0.000000 0.000000 10.759194 -9.629843 -4.280159 56.666918 -10.810114 -10.778242 6.978466 37.689277 4.845210 0.000000 0.000000 0.000000 
0.072177 0.937074 0.171081 1.050636 4.411212 -5.298985 -1.965297 -0.468906 -4.385076 -1.791905 -0.356102 18.483686 5.704371 9.569779 -7.322526 0.000000 0.000000 0.000000 -4.642597 0.761951 -13.742739 1.147546 0.445498 52.494272 -3.632522 -10.003590 3.908866 0.000000 0.000000 0.000000 1.646038 -0.829181 14.093668 -1.803758 0.945500 -2.612715 -0.590332 4.120014 14.383742 8.375359 -3.021449 -19.208258 0.000000 0.000000 0.000000 -10.291137 7.681465 -4.887517 -53.698850 11.036145 -12.351001 -12.937850 -32.841001 4.682583 0.000000 0.000000 0.000000 9.059339 -13.197877 -5.906304 53.829381 -16.795157 -12.870955 13.510635 40.312865 7.467084 0.000000 0.000000 0.000000 
0.083360 0.938958 0.185453 0.168706 3.357210 -6.579518 -1.660253 -0.158329 -1.475629 -1.585497 -0.327677 17.320937 5.942052 9.466382 -9.726595 0.000000 0.000000 0.000000 -3.734752 1.490395 -24.091812 4.810979 -2.280095 71.006166 -4.713361 -13.143145 8.389965 0.000000 0.000000 0.000000 1.996295 -1.004144 16.390195 -1.907106 0.995177 -2.922930 -0.779571 4.229203 14.901535 7.359584 -2.592556 -18.285015 0.000000 0.000000 0.000000 -5.928802 10.373882 -4.853138 -50.205611 13.479392 -12.553467 -16.381915 -39.392734 6.896630 0.000000 0.000000 0.000000 6.924911 -16.921158 -7.256344 47.460756 -21.885692 -12.970035 21.376740 43.607590 11.291599 0.000000 0.000000 0.000000 
0.090380 0.940389 0.199736 -1.039576 2.517853 -7.480197 -0.999918 0.096825 1.059901 -1.594562 -0.271809 16.493514 5.956510 9.654140 -9.618693 0.000000 0.000000 0.000000 -2.157646 2.599212 -34.144651 8.255422 -6.158853 83.760168 -6.987543 -17.513334 6.044887 0.000000 0.000000 0.000000 3.097445 -1.315884 18.844270 -1.846638 0.970991 -3.277741 -1.117035 2.802957 15.343268 6.675084 -2.406507 -18.242630 0.000000 0.000000 0.000000 -4.568570 13.322194 -5.558639 -44.204658 14.139698 -11.013790 -13.869901 -49.834710 7.982914 0.000000 0.000000 0.000000 4.401721 -18.225948 -7.358507 41.089381 -22.753165 -11.397305 23.600089 50.683660 14.147873 0.000000 0.000000 0.000000 
0.095307 0.945199 0.214527 -2.612233 0.981982 -8.334612 -0.349033 0.369845 4.052560 -0.218561 -0.507229 14.658631 5.050229 7.478542 -9.892539 0.000000 0.000000 0.000000 -0.985713 4.027611 -43.962906 12.384699 -10.714502 88.345237 -9.010258 -21.746903 1.956181 0.000000 0.000000 0.000000 4.337266 -1.613863 20.735125 -1.943522 1.006173 -3.400424 -1.445294 3.223518 15.203407 7.889438 -3.145331 -18.664232 0.000000 0.000000 0.000000 -2.956796 12.534011 -4.843395 -38.578851 10.822694 -8.453081 8.960073 -63.490339 -3.713203 0.000000 0.000000 0.000000 3.843548 -17.565617 -6.964879 33.971449 -20.622171 -8.734004 7.372252 60.399425 7.816405 0.000000 0.000000 0.000000 
